<svg height="464" viewBox="0 0 398 464" width="398" xmlns="http://www.w3.org/2000/svg"><g fill="#ffffff" fill-rule="evenodd"><path d="m397.4 464h-396.8v-311.3h396.7v311.3zm-372.3-24.4h347.9v-262.5h-347.9z"/><path d="m318 229.6-24.4-1.3c0-1.3 6.6-129-43.6-181.8-13.9-14.7-30.7-22.1-51.2-22.1s-37.3 7.1-51.2 22.1c-20.6 21.5-34.5 59.6-40.6 110.1-4.7 39.1-2.9 71.5-2.9 71.7l-24.4 1.3c-.3-5.8-7.1-139.5 50.2-199.9 18.7-19.7 41.8-29.7 68.8-29.7s50.4 10 68.8 29.7c57.6 60.4 50.8 194.2 50.5 199.9z"/></g></svg>